<svg width="236" height="228" viewBox="0 0 236 228" fill="none" xmlns="http://www.w3.org/2000/svg"><path d="M274.195 32.046c-2.08 3.228-4.066 6.523-5.824 9.938-9.908 19.226-15.81 38.032-12.959 58.029 6.474 45.425 50.848 60.013 58.26 98.958 4.952 34.743-19.147 66.944-53.823 71.924-37.096 5.926-64.838-35.31-111.59-28.595-48.552 6.973-61.86 54.101-99.133 58.863-34.676 4.98-66.803-19.149-71.755-53.893-4.952-34.743 19.146-66.948 53.822-71.928 37.096-5.926 64.213 35.4 111.59 28.596 45.491-8.122 80.728-53.605 74.34-98.422-6.976-48.95-53.959-61.952-58.692-99.298-4.952-34.743 19.146-66.948 53.822-71.928 53.348-8.06 91.375 52.087 61.942 97.756z" fill="#F5F6F6"/></svg>