<svg width="184" height="70" viewBox="0 0 184 70" fill="none" xmlns="http://www.w3.org/2000/svg"><path d="M64.058 42.819c2.401 1.17 4.841 2.268 7.345 3.2 14.097 5.253 27.573 7.774 41.148 4.152 30.836-8.227 37.242-40.079 63.525-48.418 23.585-6.293 47.817 7.688 54.123 31.224 7.16 25.13-19.025 47.698-10.522 79.432 8.83 32.954 42.478 38.248 48.849 63.596 6.307 23.537-7.701 47.72-31.287 54.012-23.585 6.293-47.819-7.687-54.125-31.224-7.16-25.129 19.139-47.273 10.522-79.431-9.37-30.745-43.696-51.32-74.119-43.203-33.23 8.865-38.324 42.388-63.724 48.744-23.586 6.293-47.82-7.687-54.126-31.223-9.978-36.177 28.417-67.413 62.391-50.861z" fill="#F5F6F6"/></svg>