<svg width="347" height="316" viewBox="0 0 347 316" fill="none" xmlns="http://www.w3.org/2000/svg"><path d="M188.752 432.079c13.876-8.79 23.053-24.059 23.053-41.425 0-16.264-9.768-28.791-20.47-39.678-13.491-13.723-23.053-26.103-23.053-45.31s9.562-31.586 23.053-45.31c10.702-10.887 20.47-23.401 20.47-39.678 0-17.366-9.177-32.634-23.053-41.425-7.872-4.986-17.269-7.89-27.353-7.89-10.084 0-19.467 2.904-27.353 7.89-13.875 8.791-23.053 24.059-23.053 41.425 0 16.264 9.768 28.791 20.47 39.678 13.491 13.724 23.053 26.13 23.053 45.31 0 19.181-9.562 31.587-23.053 45.31-10.702 10.887-20.47 23.401-20.47 39.678 0 17.366 9.177 32.635 23.053 41.425 7.872 4.987 17.269 7.89 27.353 7.89 10.084 0 19.467-2.903 27.353-7.89z" fill="color(display-p3 .4157 .5092 1)"/><path d="M297.287 381.233c28.227-17.495 28.125-54.555 2.386-75.23-29.083-23.368-28.164-59.718 0-84.084 3.484-3.541 6.866-7.282 9.788-11.285 10.387-12.831 12.455-32.671 3.803-46.886-12.315-20.189-35.476-31.911-35.017-59.219.638-37.746 40.262-45.989 40.427-78.847-1.914-60.39-91.663-60.54-93.628 0 .166 32.833 39.942 45.577 40.427 78.847.396 27.059-22.715 39.043-35.016 59.219-8.64 14.215-6.585 34.042 3.815 46.874 13.54 16.846 31.367 30.65 31.214 53.333-.268 37.833-40.261 46.001-40.427 78.846-.957 35.664 42.788 58.172 72.215 38.432h.013z" fill="color(display-p3 .8 .7059 1)"/><path d="M20.314-162.039C8.087-154.296 0-140.847 0-125.551c.157 31.195 38.776 42.962 38.352 74.856-.315 23.748-19.745 36.19-32.25 54.008C-6.44 23.367 1.476 50.987 22.625 62.566 35.18 69.539 49.453 68.213 62.6 64.59c25.41-8.713 55.531-.415 65.53 24.814 7.215 16.823-4.418 34.083-19.684 43.211-14.951 8.524-29.188 8.157-45.495 2.948-40.591-12.987-77.079 24.542-55.942 61.763 12.143 20.492 39.405 27.82 60.736 15.638 27.457-15.84 17.881-55.89 46.802-70.109 16.949-10.145 34.369-5.469 52.928-1.396 50.288 12.04 75.893-54.778 32.141-80.006-12.65-7.044-26.693-5.41-39.974-2.025-21.052 7.115-39.054 4.144-51.777-7.174C86.147 32.934 94.137 20.444 81.679.542 71.51-15.712 52.806-23.549 50.458-50.684 47.722-82.329 88.653-94.357 88.81-125.54c.92-33.847-40.592-55.239-68.508-36.486l.012-.013z" fill="color(display-p3 .4157 .5092 1)"/><path d="M315.161 103c0-26.221 21.648-47.493 48.371-47.493 26.723 0 48.371 21.272 48.371 47.493 0 26.221-21.648 47.492-48.371 47.492-26.723 0-48.371-21.271-48.371-47.492z" stroke="color(display-p3 .8 .7059 1)" stroke-width="1.015"/></svg>