<svg width="274" height="272" viewBox="0 0 274 272" fill="none" xmlns="http://www.w3.org/2000/svg"><g clip-path="url(#clip0_135_545)"><path d="M296.193 46.047c-2.08 3.227-4.066 6.523-5.824 9.937-9.908 19.226-15.81 38.032-12.959 58.03 6.474 45.424 50.848 60.012 58.26 98.957 4.952 34.743-19.147 66.944-53.823 71.924-37.096 5.926-64.838-35.31-111.59-28.595-48.552 6.973-61.86 54.101-99.133 58.863-34.676 4.98-66.803-19.149-71.755-53.893-4.952-34.743 19.146-66.948 53.822-71.928 37.096-5.926 64.213 35.4 111.59 28.596 45.491-8.122 80.728-53.605 74.34-98.422-6.976-48.95-53.959-61.952-58.692-99.298-4.952-34.743 19.146-66.948 53.822-71.928 53.348-8.06 91.375 52.087 61.942 97.757z" fill="color(display-p3 .9608 .9647 .9647)"/><path d="M44.25 32.511c.884.284 1.5 1.128 1.5 2.097v4.286c0 1.136-.847 2.1-1.98 2.193-.34.027-.68.052-1.02.072v3.091l-3-3a49.5 49.5 0 01-4.02-.163 2.115 2.115 0 01-.825-.242m9.345-8.334a2.126 2.126 0 00-.476-.095 48.649 48.649 0 00-8.048 0c-1.131.094-1.976 1.057-1.976 2.192v4.286c0 .837.46 1.58 1.155 1.951m9.345-8.334v-1.874c0-1.621-1.152-3.026-2.76-3.235A48.464 48.464 0 0035.25 27c-2.115 0-4.198.137-6.24.402-1.608.209-2.76 1.614-2.76 3.235v6.226c0 1.621 1.152 3.026 2.76 3.235.577.075 1.157.14 1.74.194V45l4.155-4.155" stroke="color(display-p3 .302 .3176 .3412)" stroke-width="1.5" stroke-linecap="round" stroke-linejoin="round"/><path d="M27.1 81.2a6.9 6.9 0 01-1.43-.15c-.467-.093-.797-.17-.99-.23l.09-2.26c.2.06.43.133.69.22.26.08.563.12.91.12.667 0 1.117-.18 1.35-.54.24-.36.36-.95.36-1.77V66.54h2.44v10.71c0 .86-.097 1.583-.29 2.17a2.363 2.363 0 01-1.02 1.33c-.493.3-1.197.45-2.11.45zm10.78 0c-.986 0-1.847-.21-2.58-.63-.733-.427-1.303-1.037-1.71-1.83-.4-.793-.6-1.747-.6-2.86 0-1.08.197-2.027.59-2.84.394-.813.953-1.447 1.68-1.9.733-.453 1.61-.68 2.63-.68.987 0 1.843.217 2.57.65.727.433 1.287 1.053 1.68 1.86.4.807.6 1.777.6 2.91 0 1.047-.19 1.97-.57 2.77a4.324 4.324 0 01-1.65 1.87c-.72.453-1.6.68-2.64.68zm.01-1.85c.56 0 1.02-.153 1.38-.46.367-.307.64-.727.82-1.26.18-.533.27-1.14.27-1.82 0-.633-.08-1.217-.24-1.75-.16-.533-.423-.96-.79-1.28-.36-.327-.84-.49-1.44-.49-.566 0-1.037.15-1.41.45-.366.293-.64.707-.82 1.24-.18.527-.27 1.137-.27 1.83 0 .627.08 1.21.24 1.75.16.533.423.967.79 1.3.367.327.857.49 1.47.49zM45.256 81V70.66h2.33V81h-2.33zm-.04-12.15v-2.3h2.41v2.3h-2.41zM50.72 81V70.66h2.38v1.48c.16-.267.377-.523.65-.77.28-.247.623-.447 1.03-.6.407-.153.883-.23 1.43-.23.64 0 1.233.127 1.78.38.553.253.996.65 1.33 1.19.34.54.51 1.237.51 2.09V81h-2.44v-6.51c0-.68-.187-1.183-.56-1.51-.373-.333-.843-.5-1.41-.5a3.04 3.04 0 00-1.1.2 1.94 1.94 0 00-.85.59c-.213.26-.32.587-.32.98V81h-2.43zm21.037.08c-.82 0-1.457-.107-1.91-.32-.447-.22-.757-.53-.93-.93-.174-.4-.26-.877-.26-1.43v-6.02h-1.68v-1.72h1.75l.61-3.07h1.75v3.06h2.31v1.73h-2.31l.01 5.93c0 .307.033.533.1.68.073.14.186.233.34.28.16.04.37.06.63.06h1.28v1.54c-.14.053-.347.1-.62.14a6.48 6.48 0 01-1.07.07zm4.185-.08V66.14h2.4v6.02c.167-.26.387-.51.66-.75a3.219 3.219 0 011-.6c.4-.16.877-.24 1.43-.24.66 0 1.264.127 1.81.38.547.253.984.62 1.31 1.1.327.473.49 1.04.49 1.7V81h-2.44v-6.84c0-.533-.19-.947-.57-1.24-.373-.293-.846-.44-1.42-.44-.38 0-.743.067-1.09.2a1.943 1.943 0 00-.84.6c-.206.26-.31.587-.31.98V81h-2.43zm16.52.2c-.994 0-1.87-.21-2.63-.63a4.52 4.52 0 01-1.77-1.82c-.42-.787-.63-1.723-.63-2.81 0-1.06.19-2 .57-2.82.386-.827.943-1.477 1.67-1.95.733-.473 1.616-.71 2.65-.71 1.02 0 1.876.217 2.57.65.693.433 1.22 1.04 1.58 1.82.36.773.54 1.68.54 2.72v.74h-7.15c-.007.587.086 1.107.28 1.56.193.453.48.81.86 1.07.38.253.85.38 1.41.38.573 0 1.07-.127 1.49-.38.426-.26.71-.653.85-1.18h2.22c-.12.72-.407 1.33-.86 1.83-.447.5-.994.88-1.64 1.14-.64.26-1.31.39-2.01.39zm-2.61-6.32h4.86c0-.5-.09-.95-.27-1.35a2.114 2.114 0 00-.79-.96c-.354-.24-.8-.36-1.34-.36-.534 0-.984.13-1.35.39-.367.26-.644.597-.83 1.01-.187.407-.28.83-.28 1.27zm20.475 6.32c-1.333 0-2.41-.22-3.23-.66a3.964 3.964 0 01-1.77-1.92c-.366-.84-.55-1.853-.55-3.04v-9.04h2.49v9.29c0 1.12.274 1.947.82 2.48.554.533 1.3.8 2.24.8.634 0 1.184-.117 1.65-.35.467-.233.827-.59 1.08-1.07.254-.487.38-1.107.38-1.86v-9.29h2.46v9.18c0 1.147-.186 2.13-.56 2.95-.373.813-.97 1.44-1.79 1.88-.813.433-1.886.65-3.22.65zm12.568 0c-.72 0-1.404-.113-2.05-.34a3.943 3.943 0 01-1.62-1.09c-.434-.493-.707-1.13-.82-1.91h2.14c.093.38.256.69.49.93.24.24.52.417.84.53.326.107.663.16 1.01.16.62 0 1.12-.107 1.5-.32.38-.213.57-.543.57-.99 0-.327-.107-.587-.32-.78-.207-.193-.547-.34-1.02-.44l-1.96-.45c-.88-.193-1.584-.513-2.11-.96-.527-.447-.794-1.077-.8-1.89a2.866 2.866 0 01.46-1.64c.313-.48.78-.857 1.4-1.13.62-.28 1.383-.42 2.29-.42 1.206 0 2.173.27 2.9.81.733.533 1.11 1.297 1.13 2.29h-2.07c-.074-.447-.284-.793-.63-1.04-.347-.253-.797-.38-1.35-.38-.574 0-1.044.11-1.41.33-.367.22-.55.557-.55 1.01 0 .313.136.56.41.74.28.18.703.333 1.27.46l1.86.45c.533.133.97.313 1.31.54.34.227.603.477.79.75.193.267.326.543.4.83.08.28.12.54.12.78 0 .667-.174 1.237-.52 1.71-.34.467-.824.827-1.45 1.08-.62.253-1.357.38-2.21.38zm11.211 0c-.993 0-1.87-.21-2.63-.63a4.523 4.523 0 01-1.77-1.82c-.42-.787-.63-1.723-.63-2.81 0-1.06.19-2 .57-2.82.387-.827.944-1.477 1.67-1.95.734-.473 1.617-.71 2.65-.71 1.02 0 1.877.217 2.57.65.694.433 1.22 1.04 1.58 1.82.36.773.54 1.68.54 2.72v.74h-7.15c-.006.587.087 1.107.28 1.56.194.453.48.81.86 1.07.38.253.85.38 1.41.38.574 0 1.07-.127 1.49-.38.427-.26.71-.653.85-1.18h2.22c-.12.72-.406 1.33-.86 1.83-.446.5-.993.88-1.64 1.14-.64.26-1.31.39-2.01.39zm-2.61-6.32h4.86c0-.5-.09-.95-.27-1.35a2.108 2.108 0 00-.79-.96c-.353-.24-.8-.36-1.34-.36-.533 0-.983.13-1.35.39-.366.26-.643.597-.83 1.01-.186.407-.28.83-.28 1.27zm9.736 6.12V70.66h2.33v2.24a3.79 3.79 0 01.71-1.31 3.18 3.18 0 011.1-.84 3.235 3.235 0 011.72-.27.632.632 0 01.25.07v2.33a.977.977 0 00-.29-.07 2.63 2.63 0 00-.3-.02c-.5-.04-.944-.02-1.33.06-.38.08-.704.217-.97.41-.26.187-.457.427-.59.72-.134.287-.2.623-.2 1.01V81h-2.43zM25.75 109V94.54h5.87c1.107 0 2.017.173 2.73.52.72.34 1.253.823 1.6 1.45.347.62.52 1.347.52 2.18 0 .773-.127 1.423-.38 1.95-.253.52-.583.947-.99 1.28-.4.327-.83.593-1.29.8l2.76 6.28h-2.54l-2.49-5.87h-3.36V109h-2.43zm2.43-7.8h2.89c.92 0 1.637-.213 2.15-.64.52-.427.78-1.02.78-1.78 0-.747-.24-1.323-.72-1.73-.48-.407-1.113-.61-1.9-.61h-3.2v4.76zm15.399 8c-.993 0-1.87-.21-2.63-.63a4.52 4.52 0 01-1.77-1.82c-.42-.787-.63-1.723-.63-2.81 0-1.06.19-2 .57-2.82.387-.827.943-1.477 1.67-1.95.733-.473 1.617-.71 2.65-.71 1.02 0 1.877.217 2.57.65.693.433 1.22 1.04 1.58 1.82.36.773.54 1.68.54 2.72v.74h-7.15c-.007.587.087 1.107.28 1.56.193.453.48.81.86 1.07.38.253.85.38 1.41.38.573 0 1.07-.127 1.49-.38.427-.26.71-.653.85-1.18h2.22c-.12.72-.407 1.33-.86 1.83-.447.5-.993.88-1.64 1.14-.64.26-1.31.39-2.01.39zm-2.61-6.32h4.86c0-.5-.09-.95-.27-1.35a2.111 2.111 0 00-.79-.96c-.353-.24-.8-.36-1.34-.36-.533 0-.983.13-1.35.39-.367.26-.643.597-.83 1.01-.187.407-.28.83-.28 1.27zm13.656 6.32c-.72 0-1.403-.113-2.05-.34a3.943 3.943 0 01-1.62-1.09c-.433-.493-.706-1.13-.82-1.91h2.14c.093.38.257.69.49.93.24.24.52.417.84.53.327.107.664.16 1.01.16.62 0 1.12-.107 1.5-.32.38-.213.57-.543.57-.99 0-.327-.107-.587-.32-.78-.207-.193-.547-.34-1.02-.44l-1.96-.45c-.88-.193-1.583-.513-2.11-.96-.526-.447-.793-1.077-.8-1.89a2.874 2.874 0 01.46-1.64c.313-.48.78-.857 1.4-1.13.62-.28 1.383-.42 2.29-.42 1.207 0 2.173.27 2.9.81.733.533 1.11 1.297 1.13 2.29h-2.07c-.073-.447-.283-.793-.63-1.04-.346-.253-.797-.38-1.35-.38-.573 0-1.043.11-1.41.33-.367.22-.55.557-.55 1.01 0 .313.137.56.41.74.28.18.703.333 1.27.46l1.86.45c.533.133.97.313 1.31.54.34.227.604.477.79.75.194.267.327.543.4.83.08.28.12.54.12.78 0 .667-.173 1.237-.52 1.71-.34.467-.823.827-1.45 1.08-.62.253-1.357.38-2.21.38zm11.212 0c-.994 0-1.87-.21-2.63-.63a4.52 4.52 0 01-1.77-1.82c-.42-.787-.63-1.723-.63-2.81 0-1.06.19-2 .57-2.82.386-.827.943-1.477 1.67-1.95.733-.473 1.616-.71 2.65-.71 1.02 0 1.876.217 2.57.65.693.433 1.22 1.04 1.58 1.82.36.773.54 1.68.54 2.72v.74h-7.15c-.007.587.086 1.107.28 1.56.193.453.48.81.86 1.07.38.253.85.38 1.41.38.573 0 1.07-.127 1.49-.38.426-.26.71-.653.85-1.18h2.22c-.12.72-.407 1.33-.86 1.83-.447.5-.994.88-1.64 1.14-.64.26-1.31.39-2.01.39zm-2.61-6.32h4.86c0-.5-.09-.95-.27-1.35a2.11 2.11 0 00-.79-.96c-.354-.24-.8-.36-1.34-.36-.534 0-.984.13-1.35.39-.367.26-.644.597-.83 1.01-.187.407-.28.83-.28 1.27zm12.627 6.32c-.66 0-1.253-.12-1.78-.36a2.966 2.966 0 01-1.23-1.05c-.293-.46-.44-1.017-.44-1.67 0-1.14.41-2 1.23-2.58.827-.58 2.14-.883 3.94-.91l1.55-.04v-.7c0-.547-.163-.973-.49-1.28-.32-.313-.82-.467-1.5-.46a2.843 2.843 0 00-1.38.36c-.413.227-.686.61-.82 1.15h-2.07c.04-.707.244-1.297.61-1.77.374-.48.884-.837 1.53-1.07.647-.24 1.394-.36 2.24-.36.987 0 1.79.13 2.41.39.62.26 1.077.637 1.37 1.13.294.487.44 1.077.44 1.77V109h-2.05l-.2-1.86c-.366.78-.836 1.32-1.41 1.62-.566.293-1.216.44-1.95.44zm.79-1.65c.3 0 .597-.053.89-.16a2.95 2.95 0 00.79-.45c.24-.193.43-.407.57-.64.147-.233.224-.477.23-.73v-1.63l-1.27.02c-.626.007-1.176.073-1.65.2-.466.127-.83.33-1.09.61-.26.273-.39.64-.39 1.1 0 .527.184.94.55 1.24.367.293.824.44 1.37.44zm7.662 1.45V98.66h2.33v2.24c.166-.513.403-.95.71-1.31a3.19 3.19 0 011.1-.84 3.237 3.237 0 011.72-.27.627.627 0 01.25.07v2.33a.972.972 0 00-.29-.07 2.683 2.683 0 00-.3-.02c-.5-.04-.944-.02-1.33.06-.38.08-.704.217-.97.41a1.78 1.78 0 00-.59.72c-.134.287-.2.623-.2 1.01V109h-2.43zm12.559.2c-.947 0-1.79-.207-2.53-.62-.734-.42-1.31-1.027-1.73-1.82-.42-.8-.63-1.763-.63-2.89 0-1.073.196-2.013.59-2.82.4-.813.963-1.447 1.69-1.9.733-.46 1.603-.69 2.61-.69.806 0 1.516.16 2.13.48.613.32 1.103.763 1.47 1.33.373.567.596 1.21.67 1.93h-2.07a2.37 2.37 0 00-.35-.89 2.011 2.011 0 00-.73-.69c-.3-.18-.667-.27-1.1-.27-.78 0-1.41.287-1.89.86s-.72 1.453-.72 2.64c0 1.093.226 1.963.68 2.61.46.647 1.116.97 1.97.97.426 0 .793-.093 1.1-.28.306-.193.546-.43.72-.71.18-.287.293-.573.34-.86h2.02c-.06.7-.277 1.323-.65 1.87a3.914 3.914 0 01-1.48 1.29c-.614.307-1.317.46-2.11.46zm6.73-.2V94.14h2.4v6.02c.167-.26.387-.51.66-.75a3.219 3.219 0 011-.6c.4-.16.877-.24 1.43-.24.66 0 1.263.127 1.81.38.547.253.983.62 1.31 1.1.327.473.49 1.04.49 1.7V109h-2.44v-6.84c0-.533-.19-.947-.57-1.24-.373-.293-.847-.44-1.42-.44-.38 0-.743.067-1.09.2a1.934 1.934 0 00-.84.6c-.207.26-.31.587-.31.98V109h-2.43zm16.867 3.22V98.66h2.43l.02 1.63c.133-.227.303-.45.51-.67a3.98 3.98 0 01.73-.59 3.8 3.8 0 01.93-.41c.34-.107.713-.16 1.12-.16.793 0 1.497.19 2.11.57.613.373 1.093.95 1.44 1.73.353.78.53 1.767.53 2.96 0 1.22-.18 2.237-.54 3.05-.36.813-.863 1.423-1.51 1.83-.647.4-1.397.6-2.25.6-.393 0-.753-.053-1.08-.16a3.076 3.076 0 01-.86-.44 4.234 4.234 0 01-.67-.61 3.829 3.829 0 01-.47-.69v4.92h-2.44zm4.98-4.84c.733 0 1.34-.29 1.82-.87.48-.587.72-1.503.72-2.75 0-1.08-.227-1.93-.68-2.55-.447-.627-1.067-.94-1.86-.94-.853 0-1.493.33-1.92.99-.427.653-.64 1.487-.64 2.5 0 .653.093 1.257.28 1.81.193.547.477.987.85 1.32.38.327.857.49 1.43.49zm10.194 1.82c-.66 0-1.254-.12-1.78-.36a2.966 2.966 0 01-1.23-1.05c-.294-.46-.44-1.017-.44-1.67 0-1.14.41-2 1.23-2.58.826-.58 2.14-.883 3.94-.91l1.55-.04v-.7c0-.547-.164-.973-.49-1.28-.32-.313-.82-.467-1.5-.46a2.842 2.842 0 00-1.38.36c-.414.227-.687.61-.82 1.15h-2.07c.04-.707.243-1.297.61-1.77.373-.48.883-.837 1.53-1.07.646-.24 1.393-.36 2.24-.36.986 0 1.79.13 2.41.39.62.26 1.076.637 1.37 1.13.293.487.44 1.077.44 1.77V109h-2.05l-.2-1.86c-.367.78-.837 1.32-1.41 1.62-.567.293-1.217.44-1.95.44zm.79-1.65c.3 0 .596-.053.89-.16.293-.113.556-.263.79-.45.24-.193.43-.407.57-.64.146-.233.223-.477.23-.73v-1.63l-1.27.02c-.627.007-1.177.073-1.65.2-.467.127-.83.33-1.09.61-.26.273-.39.64-.39 1.1 0 .527.183.94.55 1.24.366.293.823.44 1.37.44zm7.661 1.45V98.66h2.38v1.48c.16-.267.377-.523.65-.77.28-.247.623-.447 1.03-.6.407-.153.883-.23 1.43-.23.64 0 1.233.127 1.78.38.553.253.997.65 1.33 1.19.34.54.51 1.237.51 2.09v6.8h-2.44v-6.51c0-.68-.187-1.183-.56-1.51-.373-.333-.843-.5-1.41-.5-.387 0-.753.067-1.1.2-.347.127-.63.323-.85.59-.213.26-.32.587-.32.98V109h-2.43zm16.539.2c-.994 0-1.87-.21-2.63-.63a4.51 4.51 0 01-1.77-1.82c-.42-.787-.63-1.723-.63-2.81 0-1.06.19-2 .57-2.82a4.583 4.583 0 011.67-1.95c.733-.473 1.616-.71 2.65-.71 1.02 0 1.876.217 2.57.65a4.134 4.134 0 011.58 1.82c.36.773.54 1.68.54 2.72v.74h-7.15c-.007.587.086 1.107.28 1.56.193.453.48.81.86 1.07.38.253.85.38 1.41.38.573 0 1.07-.127 1.49-.38.426-.26.71-.653.85-1.18h2.22c-.12.72-.407 1.33-.86 1.83-.447.5-.994.88-1.64 1.14-.64.26-1.31.39-2.01.39zm-2.61-6.32h4.86c0-.5-.09-.95-.27-1.35a2.117 2.117 0 00-.79-.96c-.354-.24-.8-.36-1.34-.36-.534 0-.984.13-1.35.39-.367.26-.644.597-.83 1.01-.187.407-.28.83-.28 1.27zm12.715 6.27c-.667 0-1.2-.083-1.6-.25-.4-.167-.7-.39-.9-.67-.2-.28-.33-.593-.39-.94a6.434 6.434 0 01-.09-1.08V94.14h2.38v11.79c0 .447.09.793.27 1.04.187.247.487.39.9.43l.52.02v1.53c-.18.053-.363.1-.55.14a2.58 2.58 0 01-.54.06zM25.528 146v-11.568h1.48V146h-1.48zm4.227 0v-8.272h1.432v1.2c.134-.229.318-.445.552-.648.24-.203.528-.365.864-.488a3.46 3.46 0 011.176-.184 3.31 3.31 0 011.44.312c.443.208.795.533 1.056.976.267.437.4 1.003.4 1.696V146h-1.48v-5.264c0-.645-.17-1.123-.512-1.432-.336-.315-.773-.472-1.312-.472-.373 0-.722.061-1.048.184a1.79 1.79 0 00-.792.544c-.202.24-.304.544-.304.912V146h-1.472zm10.073 0v-7.192h-1.752v-1.08h1.752v-1.28c0-.656.165-1.155.496-1.496.336-.347.837-.52 1.504-.52h1.56l.008 1.048h-1.232c-.341 0-.573.091-.696.272-.123.181-.184.456-.184.824v1.152h2.032v1.08h-2.008V146h-1.48zm7.312.104c-.448 0-.81-.061-1.088-.184a1.533 1.533 0 01-.632-.496 1.884 1.884 0 01-.296-.712 4.825 4.825 0 01-.072-.84v-9.76h1.456v9.616c0 .416.08.728.24.936a.922.922 0 00.688.344l.448.008v.96c-.123.037-.25.067-.384.088-.133.027-.253.04-.36.04zm5.53.056a4.352 4.352 0 01-1.224-.184 3.151 3.151 0 01-1.008-.536 2.533 2.533 0 01-.696-.872c-.165-.352-.248-.76-.248-1.224v-5.616h1.48v5.464c0 .539.166.976.496 1.312.336.336.84.504 1.512.504.608 0 1.096-.157 1.464-.472.374-.32.56-.795.56-1.424v-5.384h1.472V146h-1.176l-.152-1.584c-.101.416-.274.752-.52 1.008-.24.256-.53.445-.872.568a3.161 3.161 0 01-1.088.168zm9.737 0c-.767 0-1.445-.168-2.031-.504a3.505 3.505 0 01-1.377-1.448c-.33-.629-.495-1.384-.495-2.264 0-.869.149-1.632.448-2.288a3.52 3.52 0 011.296-1.536c.57-.368 1.256-.552 2.056-.552.778 0 1.437.168 1.975.504.54.336.947.811 1.225 1.424.282.608.423 1.331.423 2.168v.544H60c0 .523.086.997.256 1.424.176.421.44.757.792 1.008.353.251.798.376 1.337.376.527 0 .98-.123 1.36-.368.383-.245.629-.6.736-1.064h1.391A2.726 2.726 0 0165.2 145a3.35 3.35 0 01-1.257.872 4.137 4.137 0 01-1.535.288zm-2.4-4.952h4.497c0-.475-.08-.901-.24-1.28a1.959 1.959 0 00-.736-.904c-.326-.224-.736-.336-1.233-.336-.517 0-.946.125-1.288.376a2.218 2.218 0 00-.76.952 2.888 2.888 0 00-.24 1.192zM67.975 146v-8.272h1.432v1.2a2.57 2.57 0 01.552-.648c.24-.203.528-.365.864-.488a3.46 3.46 0 011.176-.184 3.31 3.31 0 011.44.312c.443.208.795.533 1.056.976.267.437.4 1.003.4 1.696V146h-1.48v-5.264c0-.645-.17-1.123-.512-1.432-.336-.315-.773-.472-1.312-.472-.373 0-.723.061-1.048.184-.325.117-.59.299-.792.544-.203.24-.304.544-.304.912V146h-1.472zm12.562.16c-.746 0-1.408-.163-1.984-.488-.57-.325-1.018-.805-1.344-1.44-.32-.635-.48-1.413-.48-2.336 0-.864.147-1.619.44-2.264a3.483 3.483 0 011.296-1.52c.571-.363 1.262-.544 2.072-.544.592 0 1.123.115 1.592.344.475.224.864.544 1.168.96.304.416.491.907.56 1.472h-1.312a1.832 1.832 0 00-.336-.792 1.845 1.845 0 00-.68-.576 2.11 2.11 0 00-.984-.216c-.709 0-1.288.256-1.736.768-.442.512-.664 1.296-.664 2.352 0 .955.203 1.72.608 2.296.411.571 1.014.856 1.808.856.379 0 .71-.072.992-.216a1.903 1.903 0 001.008-1.368h1.288a2.921 2.921 0 01-.568 1.44c-.304.405-.693.72-1.168.944a3.68 3.68 0 01-1.576.328zm8.825 0c-.768 0-1.446-.168-2.032-.504a3.506 3.506 0 01-1.376-1.448c-.331-.629-.496-1.384-.496-2.264 0-.869.149-1.632.448-2.288a3.52 3.52 0 011.296-1.536c.57-.368 1.256-.552 2.056-.552.778 0 1.437.168 1.976.504.538.336.946.811 1.224 1.424.282.608.424 1.331.424 2.168v.544h-5.928c0 .523.085.997.256 1.424.176.421.44.757.792 1.008.352.251.797.376 1.336.376.528 0 .981-.123 1.36-.368.384-.245.629-.6.736-1.064h1.392a2.726 2.726 0 01-.672 1.416 3.35 3.35 0 01-1.256.872 4.137 4.137 0 01-1.536.288zm-2.4-4.952h4.496c0-.475-.08-.901-.24-1.28a1.959 1.959 0 00-.736-.904c-.326-.224-.736-.336-1.232-.336-.518 0-.947.125-1.288.376a2.219 2.219 0 00-.76.952 2.888 2.888 0 00-.24 1.192zm14.795 4.832c-.571 0-1.013-.077-1.328-.232a1.325 1.325 0 01-.664-.688c-.123-.304-.184-.677-.184-1.12v-5.192h-1.344v-1.08h1.384l.36-2.408h1.088v2.4h1.864v1.088h-1.864v5.144c0 .293.029.509.088.648a.458.458 0 00.312.256c.144.037.347.056.608.056h.904v.992a2.321 2.321 0 01-.464.096c-.203.027-.456.04-.76.04zm3.187-.04v-11.888h1.44v4.832c.138-.229.325-.443.56-.64.234-.203.52-.365.856-.488a3.269 3.269 0 011.168-.192 3.44 3.44 0 011.464.304c.437.197.784.48 1.04.848s.384.805.384 1.312V146h-1.48v-5.616c0-.496-.171-.877-.512-1.144-.336-.272-.776-.408-1.32-.408-.368 0-.715.061-1.04.184-.326.117-.59.299-.792.544-.198.24-.296.547-.296.92V146h-1.472zm12.715.16c-.768 0-1.446-.168-2.032-.504a3.499 3.499 0 01-1.376-1.448c-.331-.629-.496-1.384-.496-2.264 0-.869.149-1.632.448-2.288a3.52 3.52 0 011.296-1.536c.57-.368 1.256-.552 2.056-.552.778 0 1.437.168 1.976.504.538.336.946.811 1.224 1.424.282.608.424 1.331.424 2.168v.544h-5.928c0 .523.085.997.256 1.424.176.421.44.757.792 1.008.352.251.797.376 1.336.376.528 0 .981-.123 1.36-.368.384-.245.629-.6.736-1.064h1.392c-.097.56-.32 1.032-.672 1.416a3.358 3.358 0 01-1.256.872 4.142 4.142 0 01-1.536.288zm-2.4-4.952h4.496c0-.475-.08-.901-.24-1.28a1.963 1.963 0 00-.736-.904c-.326-.224-.736-.336-1.232-.336-.518 0-.947.125-1.288.376a2.21 2.21 0 00-.76.952 2.866 2.866 0 00-.24 1.192zM128.125 146v-7.192h-1.752v-1.08h1.752v-1.28c0-.656.165-1.155.496-1.496.336-.347.837-.52 1.504-.52h1.56l.008 1.048h-1.232c-.341 0-.573.091-.696.272-.123.181-.184.456-.184.824v1.152h2.032v1.08h-2.008V146h-1.48zm8.264.16a4.352 4.352 0 01-1.224-.184 3.145 3.145 0 01-1.008-.536 2.542 2.542 0 01-.696-.872c-.165-.352-.248-.76-.248-1.224v-5.616h1.48v5.464c0 .539.165.976.496 1.312.336.336.84.504 1.512.504.608 0 1.096-.157 1.464-.472.373-.32.56-.795.56-1.424v-5.384h1.472V146h-1.176l-.152-1.584c-.101.416-.275.752-.52 1.008-.24.256-.531.445-.872.568a3.162 3.162 0 01-1.088.168zm9.273-.12c-.57 0-1.013-.077-1.328-.232a1.328 1.328 0 01-.664-.688c-.122-.304-.184-.677-.184-1.12v-5.192h-1.344v-1.08h1.384l.36-2.408h1.088v2.4h1.864v1.088h-1.864v5.144c0 .293.03.509.088.648a.458.458 0 00.312.256c.144.037.347.056.608.056h.904v.992a2.321 2.321 0 01-.464.096 5.92 5.92 0 01-.76.04zm6.149.12a4.352 4.352 0 01-1.224-.184 3.145 3.145 0 01-1.008-.536 2.542 2.542 0 01-.696-.872c-.165-.352-.248-.76-.248-1.224v-5.616h1.48v5.464c0 .539.165.976.496 1.312.336.336.84.504 1.512.504.608 0 1.096-.157 1.464-.472.373-.32.56-.795.56-1.424v-5.384h1.472V146h-1.176l-.152-1.584c-.101.416-.275.752-.52 1.008-.24.256-.531.445-.872.568a3.162 3.162 0 01-1.088.168zm6.335-.16v-8.272h1.408v1.592c.139-.395.333-.72.584-.976.251-.261.536-.456.856-.584a2.727 2.727 0 011.368-.168.76.76 0 01.272.08v1.432a.944.944 0 00-.312-.072 2.484 2.484 0 00-.312-.024 3.3 3.3 0 00-.928.064 2.074 2.074 0 00-.76.312 1.596 1.596 0 00-.52.592c-.123.24-.184.533-.184.88V146h-1.472zm9.621.16c-.768 0-1.445-.168-2.032-.504a3.505 3.505 0 01-1.376-1.448c-.331-.629-.496-1.384-.496-2.264 0-.869.149-1.632.448-2.288.299-.656.731-1.168 1.296-1.536.571-.368 1.256-.552 2.056-.552.779 0 1.437.168 1.976.504a3.17 3.17 0 011.224 1.424c.283.608.424 1.331.424 2.168v.544h-5.928c0 .523.085.997.256 1.424.176.421.44.757.792 1.008.352.251.797.376 1.336.376.528 0 .981-.123 1.36-.368.384-.245.629-.6.736-1.064h1.392a2.726 2.726 0 01-.672 1.416 3.35 3.35 0 01-1.256.872 4.135 4.135 0 01-1.536.288zm-2.4-4.952h4.496c0-.475-.08-.901-.24-1.28a1.957 1.957 0 00-.736-.904c-.325-.224-.736-.336-1.232-.336-.517 0-.947.125-1.288.376a2.218 2.218 0 00-.76.952 2.898 2.898 0 00-.24 1.192zm14.872 4.952c-.763 0-1.429-.163-2-.488-.565-.331-1.005-.813-1.32-1.448-.315-.635-.472-1.411-.472-2.328 0-.864.147-1.621.44-2.272.293-.651.723-1.155 1.288-1.512.565-.363 1.256-.544 2.072-.544.763 0 1.424.168 1.984.504.56.331.995.819 1.304 1.464.315.645.472 1.432.472 2.36 0 .843-.144 1.584-.432 2.224a3.418 3.418 0 01-1.272 1.504c-.555.357-1.243.536-2.064.536zm.008-1.168c.491 0 .907-.125 1.248-.376.341-.251.6-.611.776-1.08.181-.469.272-1.027.272-1.672 0-.592-.08-1.123-.24-1.592-.155-.475-.4-.851-.736-1.128-.336-.277-.776-.416-1.32-.416-.501 0-.925.125-1.272.376-.347.245-.611.603-.792 1.072-.176.469-.264 1.032-.264 1.688 0 .581.077 1.109.232 1.584.16.475.411.851.752 1.128.347.277.795.416 1.344.416zM186.75 146v-7.192h-1.752v-1.08h1.752v-1.28c0-.656.165-1.155.496-1.496.336-.347.837-.52 1.504-.52h1.56l.008 1.048h-1.232c-.341 0-.573.091-.696.272-.123.181-.184.456-.184.824v1.152h2.032v1.08h-2.008V146h-1.48zm9.419 0v-11.568h1.416l6.112 8.992v-8.992h1.48V146h-1.32l-6.208-9.12V146h-1.48zm15.145.16c-.768 0-1.446-.168-2.032-.504a3.499 3.499 0 01-1.376-1.448c-.331-.629-.496-1.384-.496-2.264 0-.869.149-1.632.448-2.288a3.52 3.52 0 011.296-1.536c.57-.368 1.256-.552 2.056-.552.778 0 1.437.168 1.976.504.538.336.946.811 1.224 1.424.282.608.424 1.331.424 2.168v.544h-5.928c0 .523.085.997.256 1.424.176.421.44.757.792 1.008.352.251.797.376 1.336.376.528 0 .981-.123 1.36-.368.384-.245.629-.6.736-1.064h1.392a2.726 2.726 0 01-.672 1.416 3.358 3.358 0 01-1.256.872 4.142 4.142 0 01-1.536.288zm-2.4-4.952h4.496c0-.475-.08-.901-.24-1.28a1.963 1.963 0 00-.736-.904c-.326-.224-.736-.336-1.232-.336-.518 0-.947.125-1.288.376a2.21 2.21 0 00-.76.952 2.866 2.866 0 00-.24 1.192zm11.278 4.952c-.762 0-1.429-.163-2-.488-.565-.331-1.005-.813-1.32-1.448-.314-.635-.472-1.411-.472-2.328 0-.864.147-1.621.44-2.272.294-.651.723-1.155 1.288-1.512.566-.363 1.256-.544 2.072-.544.763 0 1.424.168 1.984.504.56.331.995.819 1.304 1.464.315.645.472 1.432.472 2.36 0 .843-.144 1.584-.432 2.224a3.418 3.418 0 01-1.272 1.504c-.554.357-1.242.536-2.064.536zm.008-1.168c.491 0 .907-.125 1.248-.376.342-.251.6-.611.776-1.08.182-.469.272-1.027.272-1.672 0-.592-.08-1.123-.24-1.592-.154-.475-.4-.851-.736-1.128-.336-.277-.776-.416-1.32-.416-.501 0-.925.125-1.272.376-.346.245-.61.603-.792 1.072-.176.469-.264 1.032-.264 1.688 0 .581.078 1.109.232 1.584.16.475.411.851.752 1.128.347.277.795.416 1.344.416zM230.895 146v-2.952h-5.448v-1.352l5.392-7.264h1.504v7.312h1.92v1.304h-1.92V146h-1.448zm-4.032-4.256h4v-5.368l-4 5.368zm8.575 6.912c-.454 0-.739-.032-.856-.096l-.184-.096v-.984l.816-.04c.373-.027.634-.125.784-.296.149-.171.224-.445.224-.824v-8.592h1.48v8.64c0 .773-.168 1.347-.504 1.72-.331.379-.918.568-1.76.568zm.736-12.68v-1.536h1.568v1.536h-1.568zm-210.95 36.6v-10.848h1.472l.016 1.44c.096-.171.219-.349.368-.536.155-.187.341-.36.56-.52a3.02 3.02 0 01.776-.392 3.163 3.163 0 011.016-.152c.661 0 1.243.152 1.744.456.507.299.901.757 1.184 1.376.283.619.424 1.403.424 2.352 0 .949-.139 1.752-.416 2.408-.272.651-.667 1.147-1.184 1.488-.517.341-1.141.512-1.872.512-.368 0-.696-.053-.984-.16a2.68 2.68 0 01-.744-.4 3.173 3.173 0 01-.528-.544 4.366 4.366 0 01-.344-.552v4.072h-1.488zm3.808-3.568c.683 0 1.24-.259 1.672-.776.432-.523.648-1.333.648-2.432 0-.944-.197-1.693-.592-2.248-.395-.555-.97-.832-1.728-.832-.768 0-1.35.285-1.744.856-.395.565-.592 1.307-.592 2.224 0 .592.088 1.131.264 1.616.176.485.437.872.784 1.16.347.288.776.432 1.288.432zm5.723.992v-8.272h1.408v1.592a2.6 2.6 0 01.584-.976 2.43 2.43 0 01.856-.584 2.73 2.73 0 011.368-.168.757.757 0 01.272.08v1.432a.944.944 0 00-.312-.072 2.476 2.476 0 00-.312-.024c-.33-.021-.64 0-.928.064a2.072 2.072 0 00-.76.312 1.598 1.598 0 00-.52.592c-.122.24-.184.533-.184.88V170h-1.472zm9.437.16c-.762 0-1.43-.163-2-.488-.565-.331-1.005-.813-1.32-1.448-.314-.635-.472-1.411-.472-2.328 0-.864.147-1.621.44-2.272.294-.651.723-1.155 1.288-1.512.566-.363 1.256-.544 2.072-.544.763 0 1.424.168 1.984.504.56.331.995.819 1.304 1.464.315.645.472 1.432.472 2.36 0 .843-.144 1.584-.432 2.224a3.418 3.418 0 01-1.272 1.504c-.554.357-1.242.536-2.064.536zm.008-1.168c.49 0 .907-.125 1.248-.376.342-.251.6-.611.776-1.08.182-.469.272-1.027.272-1.672 0-.592-.08-1.123-.24-1.592-.154-.475-.4-.851-.736-1.128-.336-.277-.776-.416-1.32-.416-.501 0-.925.125-1.272.376-.346.245-.61.603-.792 1.072-.176.469-.264 1.032-.264 1.688 0 .581.078 1.109.232 1.584.16.475.41.851.752 1.128.347.277.795.416 1.344.416zm8.743 1.168c-1.077 0-1.93-.368-2.56-1.104-.624-.736-.936-1.811-.936-3.224 0-.859.125-1.608.376-2.248.25-.64.627-1.136 1.128-1.488.502-.352 1.126-.528 1.872-.528.4 0 .752.051 1.056.152.304.101.568.229.792.384.224.155.406.315.544.48.144.165.25.317.32.456v-4.928h1.496V170h-1.136l-.16-1.696c-.053.16-.139.347-.256.56a2.68 2.68 0 01-.496.616c-.208.197-.48.36-.816.488-.336.128-.744.192-1.224.192zm.264-1.136c.832 0 1.427-.253 1.784-.76.363-.512.544-1.347.544-2.504-.005-.645-.085-1.195-.24-1.648-.154-.453-.4-.797-.736-1.032-.33-.24-.773-.36-1.328-.36-.677 0-1.23.243-1.656.728-.427.485-.64 1.256-.64 2.312 0 1.035.192 1.837.576 2.408.384.571.95.856 1.696.856zm9.307 1.136a4.352 4.352 0 01-1.224-.184 3.151 3.151 0 01-1.008-.536 2.535 2.535 0 01-.696-.872c-.165-.352-.248-.76-.248-1.224v-5.616h1.48v5.464c0 .539.165.976.496 1.312.336.336.84.504 1.512.504.608 0 1.096-.157 1.464-.472.373-.32.56-.795.56-1.424v-5.384h1.472V170h-1.176l-.152-1.584c-.101.416-.275.752-.52 1.008-.24.256-.53.445-.872.568a3.161 3.161 0 01-1.088.168zm9.57 0c-.747 0-1.409-.163-1.985-.488-.57-.325-1.018-.805-1.344-1.44-.32-.635-.48-1.413-.48-2.336 0-.864.147-1.619.44-2.264a3.483 3.483 0 011.296-1.52c.57-.363 1.262-.544 2.072-.544.592 0 1.123.115 1.592.344.475.224.864.544 1.168.96.304.416.49.907.56 1.472h-1.312a1.832 1.832 0 00-.336-.792 1.845 1.845 0 00-.68-.576 2.11 2.11 0 00-.984-.216c-.71 0-1.288.256-1.736.768-.442.512-.664 1.296-.664 2.352 0 .955.203 1.72.608 2.296.41.571 1.014.856 1.808.856.379 0 .71-.072.992-.216a1.903 1.903 0 001.008-1.368h1.288a2.921 2.921 0 01-.568 1.44c-.304.405-.693.72-1.168.944-.47.219-.994.328-1.576.328zm8.031-.12c-.57 0-1.013-.077-1.328-.232a1.326 1.326 0 01-.664-.688c-.122-.304-.184-.677-.184-1.12v-5.192h-1.344v-1.08h1.384l.36-2.408h1.088v2.4h1.864v1.088h-1.864v5.144c0 .293.03.509.088.648a.458.458 0 00.312.256c.144.037.347.056.608.056h.904v.992a2.328 2.328 0 01-.464.096 5.92 5.92 0 01-.76.04zm6.132.12a4.775 4.775 0 01-1.608-.264 2.908 2.908 0 01-1.224-.84c-.326-.384-.528-.872-.608-1.464h1.344c.07.325.203.597.4.816.197.213.44.376.728.488.293.107.613.16.96.16.56 0 1.01-.104 1.352-.312.341-.208.512-.528.512-.96 0-.304-.09-.547-.272-.728-.176-.187-.454-.323-.832-.408l-1.712-.424c-.667-.16-1.2-.411-1.6-.752-.395-.341-.595-.819-.6-1.432 0-.485.117-.912.352-1.28s.584-.659 1.048-.872c.47-.213 1.053-.32 1.752-.32.901 0 1.626.203 2.176.608.55.4.837.989.864 1.768h-1.312a1.36 1.36 0 00-.528-.936c-.299-.235-.704-.352-1.216-.352-.523 0-.952.107-1.288.32-.33.208-.496.533-.496.976 0 .293.117.525.352.696.24.165.587.304 1.04.416l1.664.416c.379.101.693.235.944.4.25.165.448.349.592.552.144.203.245.416.304.64.064.219.096.429.096.632 0 .507-.126.944-.376 1.312-.25.363-.614.645-1.088.848-.475.197-1.048.296-1.72.296zm13.034 0c-.486 0-.896-.064-1.232-.192a2.538 2.538 0 01-.816-.488 2.68 2.68 0 01-.496-.616 3.463 3.463 0 01-.256-.56L96.32 170h-1.128v-11.888h1.488v4.928a2.38 2.38 0 01.312-.456c.144-.165.328-.325.552-.48.224-.155.488-.283.792-.384.31-.101.661-.152 1.056-.152 1.034 0 1.856.36 2.464 1.08.613.72.92 1.781.92 3.184 0 .869-.131 1.629-.392 2.28-.262.645-.651 1.149-1.168 1.512-.518.357-1.163.536-1.936.536zm-.264-1.136c.672 0 1.218-.259 1.64-.776.421-.523.632-1.352.632-2.488 0-.965-.198-1.712-.592-2.24-.39-.533-.96-.8-1.712-.8-.55 0-.992.12-1.328.36-.33.235-.576.579-.736 1.032-.155.453-.235 1.003-.24 1.648 0 1.157.178 1.992.536 2.504.362.507.962.76 1.8.76zm6.437 3.616c-.485 0-.818-.035-1-.104l-.272-.104v-.96l.848.016a2.67 2.67 0 00.76-.064c.203-.053.366-.125.488-.216a.997.997 0 00.28-.304c.07-.112.126-.219.168-.32l.288-.784-3.232-8.072h1.496l2.44 6.384 2.424-6.384h1.448l-3.48 8.896c-.218.523-.461.931-.728 1.224a2.151 2.151 0 01-.88.616c-.32.117-.669.176-1.048.176zm14.543-2.48a4.775 4.775 0 01-1.608-.264 2.904 2.904 0 01-1.224-.84c-.325-.384-.528-.872-.608-1.464h1.344c.069.325.203.597.4.816.197.213.44.376.728.488.293.107.613.16.96.16.56 0 1.011-.104 1.352-.312.341-.208.512-.528.512-.96 0-.304-.091-.547-.272-.728-.176-.187-.453-.323-.832-.408l-1.712-.424c-.667-.16-1.2-.411-1.6-.752-.395-.341-.595-.819-.6-1.432 0-.485.117-.912.352-1.28s.584-.659 1.048-.872c.469-.213 1.053-.32 1.752-.32.901 0 1.627.203 2.176.608.549.4.837.989.864 1.768h-1.312a1.356 1.356 0 00-.528-.936c-.299-.235-.704-.352-1.216-.352-.523 0-.952.107-1.288.32-.331.208-.496.533-.496.976 0 .293.117.525.352.696.24.165.587.304 1.04.416l1.664.416c.379.101.693.235.944.4.251.165.448.349.592.552.144.203.245.416.304.64.064.219.096.429.096.632 0 .507-.125.944-.376 1.312-.251.363-.613.645-1.088.848-.475.197-1.048.296-1.72.296zm5.118-.16v-11.888h1.44v4.832c.138-.229.325-.443.56-.64.234-.203.52-.365.856-.488a3.269 3.269 0 011.168-.192 3.44 3.44 0 011.464.304c.437.197.784.48 1.04.848s.384.805.384 1.312V170h-1.48v-5.616c0-.496-.171-.877-.512-1.144-.336-.272-.776-.408-1.32-.408-.368 0-.715.061-1.04.184-.326.117-.59.299-.792.544-.198.24-.296.547-.296.92V170h-1.472zm11.507.16c-.539 0-1.013-.093-1.424-.28a2.305 2.305 0 01-.96-.824c-.229-.357-.344-.789-.344-1.296 0-.917.32-1.6.96-2.048.64-.448 1.667-.688 3.08-.72l1.472-.04v-.648c0-.507-.152-.907-.456-1.2-.304-.299-.773-.448-1.408-.448a2.433 2.433 0 00-1.256.336c-.363.219-.595.576-.696 1.072h-1.304c.032-.539.181-.992.448-1.36.272-.373.653-.656 1.144-.848.491-.192 1.069-.288 1.736-.288.72 0 1.317.101 1.792.304.48.203.837.501 1.072.896.24.395.36.88.36 1.456V170h-1.264l-.112-1.552c-.315.645-.72 1.093-1.216 1.344a3.585 3.585 0 01-1.624.368zm.44-1.064c.283 0 .56-.051.832-.152.277-.101.528-.237.752-.408.229-.176.413-.371.552-.584a1.24 1.24 0 00.208-.672v-1.416l-1.224.024c-.635.011-1.163.075-1.584.192-.421.117-.739.301-.952.552-.213.251-.32.579-.32.984 0 .464.163.827.488 1.088.325.261.741.392 1.248.392zm6.084.904v-8.272h1.408v1.592c.139-.395.333-.72.584-.976.251-.261.536-.456.856-.584a2.727 2.727 0 011.368-.168.76.76 0 01.272.08v1.432a.944.944 0 00-.312-.072 2.484 2.484 0 00-.312-.024 3.3 3.3 0 00-.928.064 2.074 2.074 0 00-.76.312 1.596 1.596 0 00-.52.592c-.123.24-.184.533-.184.88V170h-1.472zm6.29 0v-8.272h1.432V170h-1.432zm-.04-10.024v-1.536h1.512v1.536h-1.512zM153.443 170v-8.272h1.432v1.2a2.57 2.57 0 01.552-.648c.24-.203.528-.365.864-.488a3.457 3.457 0 011.176-.184c.522 0 1.002.104 1.44.312.442.208.794.533 1.056.976.266.437.4 1.003.4 1.696V170h-1.48v-5.264c0-.645-.171-1.123-.512-1.432-.336-.315-.774-.472-1.312-.472-.374 0-.723.061-1.048.184-.326.117-.59.299-.792.544-.203.24-.304.544-.304.912V170h-1.472zm12.73 2.736c-1.296 0-2.307-.189-3.032-.568-.725-.373-1.088-.909-1.088-1.608 0-.299.069-.552.208-.76.139-.213.304-.389.496-.528s.371-.248.536-.328c.165-.085.275-.147.328-.184-.096-.053-.211-.12-.344-.2a1.37 1.37 0 01-.36-.32.838.838 0 01-.152-.52c0-.261.123-.501.368-.72.245-.219.611-.381 1.096-.488a2.92 2.92 0 01-1.136-.976 2.32 2.32 0 01-.408-1.32c0-.533.144-.997.432-1.392.288-.395.701-.696 1.24-.904.539-.213 1.181-.32 1.928-.32.539 0 .989.064 1.352.192.368.123.709.299 1.024.528.085-.037.221-.093.408-.168a63.537 63.537 0 011.232-.512c.197-.085.355-.149.472-.192l-.008 1.368-1.448.272c.085.171.152.357.2.56.048.203.072.392.072.568 0 .485-.128.925-.384 1.32-.251.395-.632.709-1.144.944-.512.235-1.152.352-1.92.352h-.248a11.765 11.765 0 01-.248-.016c-.565.016-.955.08-1.168.192-.208.107-.312.227-.312.36 0 .155.12.261.36.32s.645.109 1.216.152l.768.04c.309.016.653.037 1.032.064.864.053 1.531.275 2 .664.469.389.704.915.704 1.576 0 .752-.336 1.365-1.008 1.84-.667.475-1.688.712-3.064.712zm.264-.952c.763 0 1.347-.115 1.752-.344.411-.229.616-.576.616-1.04a1 1 0 00-.376-.808c-.251-.213-.629-.336-1.136-.368l-2.32-.152a1.252 1.252 0 00-.648.16 1.615 1.615 0 00-.568.472 1.103 1.103 0 00-.232.688c0 .437.237.779.712 1.024s1.208.368 2.2.368zm-.248-5.904c.592 0 1.069-.139 1.432-.416.368-.277.552-.688.552-1.232 0-.56-.184-.987-.552-1.28-.363-.293-.84-.44-1.432-.44-.608 0-1.099.149-1.472.448-.368.293-.552.717-.552 1.272 0 .523.176.928.528 1.216.357.288.856.432 1.496.432zm11.062 6.76c-.485 0-.819-.035-1-.104l-.272-.104v-.96l.848.016c.304.011.557-.011.76-.064.203-.053.365-.125.488-.216a.997.997 0 00.28-.304 2.43 2.43 0 00.168-.32l.288-.784-3.232-8.072h1.496l2.44 6.384 2.424-6.384h1.448l-3.48 8.896c-.219.523-.461.931-.728 1.224a2.158 2.158 0 01-.88.616c-.32.117-.669.176-1.048.176zm10.894-2.48c-.762 0-1.429-.163-2-.488-.565-.331-1.005-.813-1.32-1.448-.314-.635-.472-1.411-.472-2.328 0-.864.147-1.621.44-2.272.294-.651.723-1.155 1.288-1.512.566-.363 1.256-.544 2.072-.544.763 0 1.424.168 1.984.504.56.331.995.819 1.304 1.464.315.645.472 1.432.472 2.36 0 .843-.144 1.584-.432 2.224a3.418 3.418 0 01-1.272 1.504c-.554.357-1.242.536-2.064.536zm.008-1.168c.491 0 .907-.125 1.248-.376.342-.251.6-.611.776-1.08.182-.469.272-1.027.272-1.672 0-.592-.08-1.123-.24-1.592-.154-.475-.4-.851-.736-1.128-.336-.277-.776-.416-1.32-.416-.501 0-.925.125-1.272.376-.346.245-.61.603-.792 1.072-.176.469-.264 1.032-.264 1.688 0 .581.078 1.109.232 1.584.16.475.411.851.752 1.128.347.277.795.416 1.344.416zm8.736 1.168a4.352 4.352 0 01-1.224-.184 3.145 3.145 0 01-1.008-.536 2.542 2.542 0 01-.696-.872c-.165-.352-.248-.76-.248-1.224v-5.616h1.48v5.464c0 .539.165.976.496 1.312.336.336.84.504 1.512.504.608 0 1.096-.157 1.464-.472.373-.32.56-.795.56-1.424v-5.384h1.472V170h-1.176l-.152-1.584c-.101.416-.275.752-.52 1.008-.24.256-.531.445-.872.568a3.162 3.162 0 01-1.088.168zm6.335-.16v-8.272h1.408v1.592c.139-.395.333-.72.584-.976.251-.261.536-.456.856-.584a2.727 2.727 0 011.368-.168.76.76 0 01.272.08v1.432a.944.944 0 00-.312-.072 2.484 2.484 0 00-.312-.024 3.3 3.3 0 00-.928.064 2.074 2.074 0 00-.76.312 1.596 1.596 0 00-.52.592c-.123.24-.184.533-.184.88V170h-1.472zM28.72 194.16c-.768 0-1.445-.168-2.032-.504a3.505 3.505 0 01-1.376-1.448c-.33-.629-.496-1.384-.496-2.264 0-.869.15-1.632.448-2.288.299-.656.73-1.168 1.296-1.536.57-.368 1.256-.552 2.056-.552.779 0 1.437.168 1.976.504a3.17 3.17 0 011.224 1.424c.283.608.424 1.331.424 2.168v.544h-5.928c0 .523.085.997.256 1.424.176.421.44.757.792 1.008.352.251.797.376 1.336.376.528 0 .981-.123 1.36-.368.384-.245.63-.6.736-1.064h1.392a2.726 2.726 0 01-.672 1.416 3.35 3.35 0 01-1.256.872 4.137 4.137 0 01-1.536.288zm-2.4-4.952h4.496c0-.475-.08-.901-.24-1.28a1.959 1.959 0 00-.736-.904c-.325-.224-.736-.336-1.232-.336-.517 0-.947.125-1.288.376a2.218 2.218 0 00-.76.952 2.888 2.888 0 00-.24 1.192zM33.004 194l3.184-4.296-2.928-3.976h1.608l2.152 2.904 2.152-2.904h1.616l-2.944 3.976L41.028 194H39.42l-2.408-3.24L34.62 194h-1.616zm9.751 2.576v-10.848h1.472l.016 1.44c.096-.171.219-.349.368-.536a3.08 3.08 0 01.56-.52 3.02 3.02 0 01.776-.392 3.162 3.162 0 011.016-.152c.662 0 1.243.152 1.744.456.507.299.902.757 1.184 1.376.283.619.424 1.403.424 2.352 0 .949-.138 1.752-.416 2.408-.272.651-.666 1.147-1.184 1.488-.517.341-1.141.512-1.872.512-.368 0-.696-.053-.984-.16a2.68 2.68 0 01-.744-.4 3.173 3.173 0 01-.528-.544 4.355 4.355 0 01-.344-.552v4.072h-1.488zm3.808-3.568c.683 0 1.24-.259 1.672-.776.432-.523.648-1.333.648-2.432 0-.944-.197-1.693-.592-2.248-.394-.555-.97-.832-1.728-.832-.768 0-1.35.285-1.744.856-.394.565-.592 1.307-.592 2.224 0 .592.088 1.131.264 1.616.176.485.438.872.784 1.16.347.288.776.432 1.288.432zm9.22 1.152c-.769 0-1.446-.168-2.032-.504a3.505 3.505 0 01-1.377-1.448c-.33-.629-.495-1.384-.495-2.264 0-.869.149-1.632.448-2.288a3.52 3.52 0 011.296-1.536c.57-.368 1.256-.552 2.056-.552.778 0 1.437.168 1.975.504.54.336.947.811 1.224 1.424.283.608.425 1.331.425 2.168v.544h-5.928c0 .523.085.997.255 1.424.176.421.44.757.792 1.008.353.251.798.376 1.337.376.527 0 .98-.123 1.36-.368.383-.245.629-.6.736-1.064h1.392a2.726 2.726 0 01-.672 1.416 3.35 3.35 0 01-1.257.872 4.137 4.137 0 01-1.535.288zm-2.4-4.952h4.495c0-.475-.08-.901-.24-1.28a1.959 1.959 0 00-.735-.904c-.326-.224-.736-.336-1.233-.336-.517 0-.946.125-1.288.376a2.218 2.218 0 00-.76.952 2.888 2.888 0 00-.24 1.192zM61.349 194v-8.272h1.408v1.592c.139-.395.333-.72.584-.976.25-.261.536-.456.856-.584a2.73 2.73 0 011.368-.168.757.757 0 01.272.08v1.432a.944.944 0 00-.312-.072 2.476 2.476 0 00-.312-.024c-.33-.021-.64 0-.928.064a2.072 2.072 0 00-.76.312 1.598 1.598 0 00-.52.592c-.123.24-.184.533-.184.88V194h-1.472zm6.29 0v-8.272h1.432V194h-1.432zm-.04-10.024v-1.536h1.512v1.536h-1.512zm7.45 10.184c-.769 0-1.446-.168-2.033-.504a3.506 3.506 0 01-1.376-1.448c-.33-.629-.496-1.384-.496-2.264 0-.869.15-1.632.448-2.288.299-.656.73-1.168 1.296-1.536.57-.368 1.256-.552 2.056-.552.779 0 1.438.168 1.976.504a3.17 3.17 0 011.224 1.424c.283.608.424 1.331.424 2.168v.544H72.64c0 .523.085.997.256 1.424.176.421.44.757.792 1.008.352.251.797.376 1.336.376.528 0 .981-.123 1.36-.368.384-.245.63-.6.736-1.064h1.392A2.726 2.726 0 0177.84 193a3.35 3.35 0 01-1.256.872 4.137 4.137 0 01-1.536.288zm-2.4-4.952h4.495c0-.475-.08-.901-.24-1.28a1.959 1.959 0 00-.736-.904c-.325-.224-.736-.336-1.232-.336-.517 0-.947.125-1.288.376a2.219 2.219 0 00-.76.952 2.888 2.888 0 00-.24 1.192zM80.614 194v-8.272h1.432v1.2a2.57 2.57 0 01.552-.648c.24-.203.528-.365.864-.488a3.46 3.46 0 011.176-.184 3.31 3.31 0 011.44.312c.442.208.794.533 1.056.976.266.437.4 1.003.4 1.696V194h-1.48v-5.264c0-.645-.171-1.123-.512-1.432-.336-.315-.774-.472-1.312-.472a2.94 2.94 0 00-1.048.184c-.326.117-.59.299-.792.544-.203.24-.304.544-.304.912V194h-1.472zm12.562.16c-.747 0-1.408-.163-1.984-.488-.57-.325-1.019-.805-1.344-1.44-.32-.635-.48-1.413-.48-2.336 0-.864.147-1.619.44-2.264a3.485 3.485 0 011.296-1.52c.57-.363 1.261-.544 2.072-.544.592 0 1.123.115 1.592.344.475.224.864.544 1.168.96.304.416.49.907.56 1.472h-1.312a1.832 1.832 0 00-.336-.792 1.844 1.844 0 00-.68-.576 2.108 2.108 0 00-.984-.216c-.71 0-1.288.256-1.736.768-.443.512-.664 1.296-.664 2.352 0 .955.203 1.72.608 2.296.41.571 1.013.856 1.808.856.379 0 .71-.072.992-.216a1.903 1.903 0 001.008-1.368h1.288a2.92 2.92 0 01-.568 1.44c-.304.405-.693.72-1.168.944-.47.219-.995.328-1.576.328zm8.824 0c-.768 0-1.445-.168-2.032-.504a3.505 3.505 0 01-1.376-1.448c-.33-.629-.496-1.384-.496-2.264 0-.869.15-1.632.448-2.288.299-.656.73-1.168 1.296-1.536.571-.368 1.256-.552 2.056-.552.779 0 1.438.168 1.976.504a3.17 3.17 0 011.224 1.424c.283.608.424 1.331.424 2.168v.544h-5.928c0 .523.086.997.256 1.424.176.421.44.757.792 1.008.352.251.798.376 1.336.376.528 0 .982-.123 1.36-.368.384-.245.63-.6.736-1.064h1.392a2.726 2.726 0 01-.672 1.416 3.342 3.342 0 01-1.256.872 4.135 4.135 0 01-1.536.288zm-2.4-4.952h4.496c0-.475-.08-.901-.24-1.28a1.957 1.957 0 00-.736-.904c-.325-.224-.736-.336-1.232-.336-.517 0-.946.125-1.288.376a2.222 2.222 0 00-.76.952 2.885 2.885 0 00-.24 1.192zm10.896 4.952a4.775 4.775 0 01-1.608-.264 2.904 2.904 0 01-1.224-.84c-.325-.384-.528-.872-.608-1.464h1.344c.069.325.203.597.4.816.197.213.44.376.728.488.293.107.613.16.96.16.56 0 1.011-.104 1.352-.312.341-.208.512-.528.512-.96 0-.304-.091-.547-.272-.728-.176-.187-.453-.323-.832-.408l-1.712-.424c-.667-.16-1.2-.411-1.6-.752-.395-.341-.595-.819-.6-1.432 0-.485.117-.912.352-1.28s.584-.659 1.048-.872c.469-.213 1.053-.32 1.752-.32.901 0 1.627.203 2.176.608.549.4.837.989.864 1.768h-1.312a1.356 1.356 0 00-.528-.936c-.299-.235-.704-.352-1.216-.352-.523 0-.952.107-1.288.32-.331.208-.496.533-.496.976 0 .293.117.525.352.696.24.165.587.304 1.04.416l1.664.416c.379.101.693.235.944.4.251.165.448.349.592.552.144.203.245.416.304.64.064.219.096.429.096.632 0 .507-.125.944-.376 1.312-.251.363-.613.645-1.088.848-.475.197-1.048.296-1.72.296zM121.1 194l-2.56-8.272h1.376l1.888 6.36h.128l1.864-6.36h1.12l1.936 6.344h.136l1.808-6.344h1.392L127.677 194h-1.456l-1.88-6.104-1.8 6.104h-1.44zm10.772 0v-8.272h1.432V194h-1.432zm-.04-10.024v-1.536h1.512v1.536h-1.512zm6.986 10.064c-.571 0-1.014-.077-1.328-.232a1.325 1.325 0 01-.664-.688c-.123-.304-.184-.677-.184-1.12v-5.192h-1.344v-1.08h1.384l.36-2.408h1.088v2.4h1.864v1.088h-1.864v5.144c0 .293.029.509.088.648a.458.458 0 00.312.256c.144.037.346.056.608.056h.904v.992a2.337 2.337 0 01-.464.096c-.203.027-.456.04-.76.04zm3.186-.04v-11.888h1.44v4.832c.139-.229.326-.443.56-.64.235-.203.52-.365.856-.488a3.272 3.272 0 011.168-.192c.539 0 1.027.101 1.464.304.438.197.784.48 1.04.848s.384.805.384 1.312V194h-1.48v-5.616c0-.496-.17-.877-.512-1.144-.336-.272-.776-.408-1.32-.408-.368 0-.714.061-1.04.184a1.795 1.795 0 00-.792.544c-.197.24-.296.547-.296.92V194h-1.472zm15.43.16c-.539 0-1.014-.093-1.424-.28a2.293 2.293 0 01-.96-.824c-.23-.357-.344-.789-.344-1.296 0-.917.32-1.6.96-2.048.64-.448 1.666-.688 3.08-.72l1.472-.04v-.648c0-.507-.152-.907-.456-1.2-.304-.299-.774-.448-1.408-.448a2.43 2.43 0 00-1.256.336c-.363.219-.595.576-.696 1.072h-1.304c.032-.539.181-.992.448-1.36.272-.373.653-.656 1.144-.848.49-.192 1.069-.288 1.736-.288.72 0 1.317.101 1.792.304.48.203.837.501 1.072.896.24.395.36.88.36 1.456V194h-1.264l-.112-1.552c-.315.645-.72 1.093-1.216 1.344a3.585 3.585 0 01-1.624.368zm.44-1.064c.282 0 .56-.051.832-.152.277-.101.528-.237.752-.408.229-.176.413-.371.552-.584.138-.219.208-.443.208-.672v-1.416l-1.224.024c-.635.011-1.163.075-1.584.192-.422.117-.739.301-.952.552-.214.251-.32.579-.32.984 0 .464.162.827.488 1.088.325.261.741.392 1.248.392zm9.974.904v-8.272h1.408v1.592c.139-.395.333-.72.584-.976.251-.261.536-.456.856-.584a2.727 2.727 0 011.368-.168.76.76 0 01.272.08v1.432a.944.944 0 00-.312-.072 2.484 2.484 0 00-.312-.024 3.3 3.3 0 00-.928.064 2.074 2.074 0 00-.76.312 1.596 1.596 0 00-.52.592c-.123.24-.184.533-.184.88V194h-1.472zm9.621.16c-.768 0-1.445-.168-2.032-.504a3.505 3.505 0 01-1.376-1.448c-.331-.629-.496-1.384-.496-2.264 0-.869.149-1.632.448-2.288.299-.656.731-1.168 1.296-1.536.571-.368 1.256-.552 2.056-.552.779 0 1.437.168 1.976.504a3.17 3.17 0 011.224 1.424c.283.608.424 1.331.424 2.168v.544h-5.928c0 .523.085.997.256 1.424.176.421.44.757.792 1.008.352.251.797.376 1.336.376.528 0 .981-.123 1.36-.368.384-.245.629-.6.736-1.064h1.392a2.726 2.726 0 01-.672 1.416 3.35 3.35 0 01-1.256.872 4.135 4.135 0 01-1.536.288zm-2.4-4.952h4.496c0-.475-.08-.901-.24-1.28a1.957 1.957 0 00-.736-.904c-.325-.224-.736-.336-1.232-.336-.517 0-.947.125-1.288.376a2.218 2.218 0 00-.76.952 2.898 2.898 0 00-.24 1.192zm10.896 4.952a4.775 4.775 0 01-1.608-.264 2.904 2.904 0 01-1.224-.84c-.326-.384-.528-.872-.608-1.464h1.344c.069.325.202.597.4.816.197.213.44.376.728.488.293.107.613.16.96.16.56 0 1.01-.104 1.352-.312.341-.208.512-.528.512-.96 0-.304-.091-.547-.272-.728-.176-.187-.454-.323-.832-.408l-1.712-.424c-.667-.16-1.2-.411-1.6-.752-.395-.341-.595-.819-.6-1.432 0-.485.117-.912.352-1.28.234-.368.584-.659 1.048-.872.469-.213 1.053-.32 1.752-.32.901 0 1.626.203 2.176.608.549.4.837.989.864 1.768h-1.312a1.364 1.364 0 00-.528-.936c-.299-.235-.704-.352-1.216-.352-.523 0-.952.107-1.288.32-.331.208-.496.533-.496.976 0 .293.117.525.352.696.24.165.586.304 1.04.416l1.664.416c.378.101.693.235.944.4.25.165.448.349.592.552.144.203.245.416.304.64.064.219.096.429.096.632 0 .507-.126.944-.376 1.312-.251.363-.614.645-1.088.848-.475.197-1.048.296-1.72.296zm8.613 0c-.768 0-1.445-.168-2.032-.504a3.511 3.511 0 01-1.376-1.448c-.33-.629-.496-1.384-.496-2.264 0-.869.15-1.632.448-2.288.299-.656.731-1.168 1.296-1.536.571-.368 1.256-.552 2.056-.552.779 0 1.438.168 1.976.504a3.17 3.17 0 011.224 1.424c.283.608.424 1.331.424 2.168v.544h-5.928c0 .523.086.997.256 1.424.176.421.44.757.792 1.008.352.251.798.376 1.336.376.528 0 .982-.123 1.36-.368.384-.245.63-.6.736-1.064h1.392a2.726 2.726 0 01-.672 1.416 3.342 3.342 0 01-1.256.872 4.135 4.135 0 01-1.536.288zm-2.4-4.952h4.496c0-.475-.08-.901-.24-1.28a1.957 1.957 0 00-.736-.904c-.325-.224-.736-.336-1.232-.336-.517 0-.946.125-1.288.376a2.225 2.225 0 00-.76.952 2.898 2.898 0 00-.24 1.192zm10.193 4.952c-.539 0-1.013-.093-1.424-.28a2.305 2.305 0 01-.96-.824c-.229-.357-.344-.789-.344-1.296 0-.917.32-1.6.96-2.048.64-.448 1.667-.688 3.08-.72l1.472-.04v-.648c0-.507-.152-.907-.456-1.2-.304-.299-.773-.448-1.408-.448a2.433 2.433 0 00-1.256.336c-.363.219-.595.576-.696 1.072h-1.304c.032-.539.181-.992.448-1.36.272-.373.653-.656 1.144-.848.491-.192 1.069-.288 1.736-.288.72 0 1.317.101 1.792.304.48.203.837.501 1.072.896.24.395.36.88.36 1.456V194h-1.264l-.112-1.552c-.315.645-.72 1.093-1.216 1.344a3.585 3.585 0 01-1.624.368zm.44-1.064c.283 0 .56-.051.832-.152.277-.101.528-.237.752-.408.229-.176.413-.371.552-.584a1.24 1.24 0 00.208-.672v-1.416l-1.224.024c-.635.011-1.163.075-1.584.192-.421.117-.739.301-.952.552-.213.251-.32.579-.32.984 0 .464.163.827.488 1.088.325.261.741.392 1.248.392zm6.084.904v-8.272h1.408v1.592c.139-.395.333-.72.584-.976.251-.261.536-.456.856-.584a2.727 2.727 0 011.368-.168.76.76 0 01.272.08v1.432a.944.944 0 00-.312-.072 2.484 2.484 0 00-.312-.024 3.3 3.3 0 00-.928.064 2.074 2.074 0 00-.76.312 1.596 1.596 0 00-.52.592c-.123.24-.184.533-.184.88V194h-1.472zm9.453.16c-.747 0-1.408-.163-1.984-.488-.571-.325-1.019-.805-1.344-1.44-.32-.635-.48-1.413-.48-2.336 0-.864.147-1.619.44-2.264a3.489 3.489 0 011.296-1.52c.571-.363 1.261-.544 2.072-.544.592 0 1.123.115 1.592.344.475.224.864.544 1.168.96.304.416.491.907.56 1.472h-1.312a1.832 1.832 0 00-.336-.792 1.844 1.844 0 00-.68-.576c-.277-.144-.605-.216-.984-.216-.709 0-1.288.256-1.736.768-.443.512-.664 1.296-.664 2.352 0 .955.203 1.72.608 2.296.411.571 1.013.856 1.808.856.379 0 .709-.072.992-.216.283-.149.509-.344.68-.584.171-.245.28-.507.328-.784h1.288a2.92 2.92 0 01-.568 1.44c-.304.405-.693.72-1.168.944a3.682 3.682 0 01-1.576.328zm5.281-.16v-11.888h1.44v4.832c.139-.229.326-.443.56-.64.235-.203.52-.365.856-.488a3.272 3.272 0 011.168-.192c.539 0 1.027.101 1.464.304.438.197.784.48 1.04.848s.384.805.384 1.312V194h-1.48v-5.616c0-.496-.17-.877-.512-1.144-.336-.272-.776-.408-1.32-.408-.368 0-.714.061-1.04.184a1.795 1.795 0 00-.792.544c-.197.24-.296.547-.296.92V194h-1.472zm12.715.16c-.768 0-1.445-.168-2.032-.504a3.505 3.505 0 01-1.376-1.448c-.331-.629-.496-1.384-.496-2.264 0-.869.149-1.632.448-2.288.299-.656.731-1.168 1.296-1.536.571-.368 1.256-.552 2.056-.552.779 0 1.437.168 1.976.504a3.17 3.17 0 011.224 1.424c.283.608.424 1.331.424 2.168v.544h-5.928c0 .523.085.997.256 1.424.176.421.44.757.792 1.008.352.251.797.376 1.336.376.528 0 .981-.123 1.36-.368.384-.245.629-.6.736-1.064h1.392a2.726 2.726 0 01-.672 1.416 3.35 3.35 0 01-1.256.872 4.135 4.135 0 01-1.536.288zm-2.4-4.952h4.496c0-.475-.08-.901-.24-1.28a1.957 1.957 0 00-.736-.904c-.325-.224-.736-.336-1.232-.336-.517 0-.947.125-1.288.376a2.218 2.218 0 00-.76.952 2.898 2.898 0 00-.24 1.192zm7.967 4.792v-8.272h1.408v1.592a2.59 2.59 0 01.584-.976c.25-.261.536-.456.856-.584a2.727 2.727 0 011.368-.168.76.76 0 01.272.08v1.432a.944.944 0 00-.312-.072 2.484 2.484 0 00-.312-.024 3.3 3.3 0 00-.928.064 2.067 2.067 0 00-.76.312 1.596 1.596 0 00-.52.592c-.123.24-.184.533-.184.88V194h-1.472zm4.734 0v-1.888h1.76V194h-1.76z" fill="color(display-p3 .102 .1059 .1137)"/><path d="M24 216a4 4 0 014-4h116a4 4 0 014 4v28a4 4 0 01-4 4H28a4 4 0 01-4-4v-28z" fill="color(display-p3 .0392 .3804 .5647)"/><path d="M49.304 235v-10.122h2.058v8.393h4.396V235h-6.454zm11.01.14c-.72 0-1.352-.149-1.898-.448a3.213 3.213 0 01-1.267-1.281c-.303-.551-.455-1.199-.455-1.946 0-.723.138-1.374.413-1.953a3.3 3.3 0 011.204-1.379c.523-.341 1.155-.511 1.897-.511.738 0 1.356.156 1.855.469.5.308.878.74 1.134 1.295.257.551.385 1.188.385 1.911v.553h-4.865c0 .369.06.691.182.966.122.271.297.481.525.63.234.145.514.217.84.217.35 0 .656-.075.917-.224.262-.149.446-.394.553-.735h1.841a2.54 2.54 0 01-.616 1.316 3.21 3.21 0 01-1.19.833 3.809 3.809 0 01-1.456.287zm-1.597-4.508h2.954c0-.289-.056-.555-.168-.798a1.278 1.278 0 00-.49-.574c-.214-.14-.485-.21-.812-.21-.312 0-.58.077-.805.231-.22.149-.39.345-.51.588a1.67 1.67 0 00-.169.763zm8.446 4.508c-.458 0-.873-.086-1.246-.259a2.076 2.076 0 01-.875-.749c-.215-.331-.322-.733-.322-1.204 0-.793.296-1.395.889-1.806.592-.415 1.528-.63 2.807-.644l.91-.014v-.434c0-.331-.098-.586-.294-.763-.192-.182-.493-.271-.903-.266a1.95 1.95 0 00-.847.21c-.266.135-.45.371-.553.707h-1.701c.028-.523.18-.952.455-1.288.28-.341.655-.593 1.127-.756.471-.168 1.01-.252 1.617-.252.737 0 1.33.093 1.778.28.448.182.772.446.973.791.205.341.308.747.308 1.218V235h-1.708l-.168-1.246c-.248.523-.558.884-.931 1.085-.369.201-.808.301-1.316.301zm.693-1.344a1.5 1.5 0 00.532-.098 1.84 1.84 0 00.476-.273c.14-.117.25-.247.329-.392a.94.94 0 00.133-.448v-1.071l-.735.014a3.877 3.877 0 00-.952.126 1.58 1.58 0 00-.714.371c-.178.173-.266.406-.266.7 0 .336.114.6.343.791.233.187.518.28.854.28zM72.943 235v-7.238h1.967v1.715a3.13 3.13 0 01.49-.966c.215-.28.474-.497.777-.651a2.182 2.182 0 011.03-.238c.065 0 .125.005.181.014a.387.387 0 01.133.028v1.946a.469.469 0 00-.154-.035l-.154-.014a3.794 3.794 0 00-1.029.035 1.658 1.658 0 00-.693.287 1.168 1.168 0 00-.385.497 1.745 1.745 0 00-.119.658V235h-2.044zm5.77 0v-7.238h2.009v1.022c.112-.177.257-.348.434-.511.182-.168.41-.306.686-.413a2.7 2.7 0 01.98-.161c.443 0 .856.086 1.239.259.387.173.7.446.938.819.238.369.357.852.357 1.449V235h-2.044v-4.522c0-.392-.117-.686-.35-.882a1.283 1.283 0 00-.854-.294c-.224 0-.441.04-.651.119a1.193 1.193 0 00-.504.357.895.895 0 00-.196.588V235h-2.044zm11.716 0v-10.122h2.968l2.317 7.217 2.338-7.217h2.961V235h-2.065v-7.742L96.512 235h-1.603l-2.422-7.707V235h-2.058zm15.558.14c-.709 0-1.328-.152-1.855-.455a3.117 3.117 0 01-1.218-1.288c-.285-.555-.427-1.213-.427-1.974 0-.761.142-1.426.427-1.995a3.227 3.227 0 011.218-1.33c.527-.317 1.148-.476 1.862-.476.714 0 1.332.156 1.855.469.523.308.926.747 1.211 1.316.285.569.427 1.241.427 2.016 0 .728-.14 1.372-.42 1.932a3.116 3.116 0 01-1.197 1.309c-.518.317-1.146.476-1.883.476zm.007-1.519c.359 0 .649-.105.868-.315.219-.21.378-.485.476-.826.098-.345.147-.721.147-1.127 0-.383-.044-.744-.133-1.085a1.714 1.714 0 00-.462-.826c-.219-.21-.518-.315-.896-.315-.359 0-.651.1-.875.301-.219.196-.38.464-.483.805a3.81 3.81 0 00-.154 1.12c0 .378.047.742.14 1.092.093.345.25.628.469.847.219.219.52.329.903.329zm4.889 1.379v-7.238h1.967v1.715c.116-.369.28-.691.49-.966.214-.28.473-.497.777-.651a2.18 2.18 0 011.029-.238c.065 0 .126.005.182.014.06.005.105.014.133.028v1.946a.472.472 0 00-.154-.035l-.154-.014a3.792 3.792 0 00-1.029.035 1.654 1.654 0 00-.693.287 1.16 1.16 0 00-.385.497c-.08.196-.119.415-.119.658V235h-2.044zm9.081.14c-.719 0-1.351-.149-1.897-.448a3.207 3.207 0 01-1.267-1.281c-.304-.551-.455-1.199-.455-1.946 0-.723.137-1.374.413-1.953a3.298 3.298 0 011.204-1.379c.522-.341 1.155-.511 1.897-.511.737 0 1.355.156 1.855.469.499.308.877.74 1.134 1.295.256.551.385 1.188.385 1.911v.553h-4.865c0 .369.06.691.182.966.121.271.296.481.525.63.233.145.513.217.84.217.35 0 .655-.075.917-.224.261-.149.445-.394.553-.735h1.841c-.084.513-.29.952-.616 1.316a3.218 3.218 0 01-1.19.833 3.81 3.81 0 01-1.456.287zm-1.596-4.508h2.954c0-.289-.056-.555-.168-.798a1.283 1.283 0 00-.49-.574c-.215-.14-.486-.21-.812-.21-.313 0-.581.077-.805.231-.22.149-.39.345-.511.588a1.663 1.663 0 00-.168.763z" fill="#fff"/></g><rect x=".5" y=".5" width="273" height="271" rx="11.5" stroke="color(display-p3 .8863 .8902 .898)"/><defs><clipPath id="clip0_135_545"><rect width="274" height="272" rx="12" fill="#fff"/></clipPath></defs></svg>